<svg width="15" height="13" viewBox="0 0 15 13" fill="none" xmlns="http://www.w3.org/2000/svg">
<path fill-rule="evenodd" clip-rule="evenodd" d="M6.03164 0.735749C6.15069 0.301248 6.54558 0 6.99609 0H8.10879C8.55931 0 8.9542 0.301248 9.07325 0.735749L9.26741 1.44441H12.5882C13.6928 1.44441 14.5882 2.33984 14.5882 3.44441V11C14.5882 12.1046 13.6928 13 12.5882 13H2.5166C1.41203 13 0.516602 12.1046 0.516602 11V3.44441C0.516602 2.33985 1.41203 1.44441 2.5166 1.44441H5.83747L6.03164 0.735749ZM7.55235 2.88909C5.22088 2.88909 3.33086 4.77911 3.33086 7.11058V7.33428C3.33086 9.66575 5.22088 11.5558 7.55235 11.5558C9.88381 11.5558 11.7738 9.66575 11.7738 7.33428V7.11058C11.7738 4.77911 9.88381 2.88909 7.55235 2.88909ZM7.55235 4.333C5.99804 4.333 4.73803 5.59302 4.73803 7.14733V7.29646C4.73803 8.85077 5.99804 10.1108 7.55235 10.1108C9.10666 10.1108 10.3667 8.85077 10.3667 7.29646V7.14732C10.3667 5.59301 9.10666 4.333 7.55235 4.333Z" fill="#FAFAFA"/>
</svg>
