<svg width="34" height="34" viewBox="0 0 34 34" fill="none" xmlns="http://www.w3.org/2000/svg">
<circle cx="17" cy="17" r="17" fill="#868686"/>
<path fill-rule="evenodd" clip-rule="evenodd" d="M23.7175 9.29259C23.327 8.90206 22.6938 8.90206 22.3033 9.29259L17 14.5959L11.6967 9.29259C11.3062 8.90206 10.673 8.90206 10.2825 9.29259L9.29254 10.2825C8.90201 10.6731 8.90201 11.3062 9.29254 11.6967L14.5958 17L9.29254 22.3033C8.90201 22.6939 8.90201 23.327 9.29254 23.7176L10.2825 24.7075C10.673 25.098 11.3062 25.098 11.6967 24.7075L17 19.4042L22.3033 24.7075C22.6938 25.098 23.327 25.098 23.7175 24.7075L24.7075 23.7176C25.098 23.327 25.098 22.6939 24.7075 22.3033L19.4042 17L24.7075 11.6968C25.098 11.3062 25.098 10.6731 24.7075 10.2825L23.7175 9.29259Z" fill="white"/>
</svg>
